<svg xmlns="http://www.w3.org/2000/svg" version="1.0" width="256.000000pt" height="200.000000pt" viewBox="-10.0 -10.0 276.0 220.0" preserveAspectRatio="xMidYMid meet">

<rect width="256.000000pt" height="200.000000pt" fill="white" /><g transform="translate(0.000000,200.000000) scale(0.100000,-0.100000)" fill="#000000" stroke="none">
<path d="M1255 1754 c-135 -20 -356 -89 -478 -150 -212 -107 -311 -331 -278 -628 17 -152 16 -149 65 -141 22 4 124 27 226 51 546 132 1090 333 1090 404 0 23 -67 177 -109 252 -51 90 -96 134 -177 175 -73 36 -80 37 -192 39 -65 1 -130 0 -147 -2z" />
<path d="M2005 1225 c-198 -44 -483 -194 -736 -387 -74 -57 -102 -71 -195 -101 -226 -73 -500 -130 -514 -106 -4 6 -15 47 -25 90 -9 44 -19 79 -23 79 -18 0 -145 -86 -198 -133 -106 -97 -154 -225 -125 -333 32 -121 140 -159 317 -114 161 41 324 140 569 347 158 133 413 319 490 357 41 21 79 27 220 40 94 9 195 16 226 16 87 0 224 27 292 58 61 28 117 79 117 108 0 21 -85 71 -141 83 -66 14 -199 12 -274 -4z" />
</g>
</svg>